<svg width="20" height="20" viewBox="0 0 20 20" fill="none" xmlns="http://www.w3.org/2000/svg">
<path fill-rule="evenodd" clip-rule="evenodd" d="M9.2804 0.265885C9.65704 -0.0886283 10.2246 -0.0886283 10.6013 0.265885L19.548 8.68694C19.9583 9.07317 19.9953 9.73851 19.6306 10.173C19.2658 10.6075 18.6375 10.6467 18.2271 10.2604L17.8935 9.94638V17.8947C17.8935 19.0574 17.0034 20 15.9053 20H3.97634C2.87831 20 1.98817 19.0574 1.98817 17.8947V9.94638L1.65452 10.2604C1.24418 10.6467 0.615853 10.6075 0.251106 10.173C-0.11364 9.73851 -0.0766794 9.07317 0.33366 8.68694L9.2804 0.265885ZM3.97634 8.07504V17.8947H6.95858V12.6316C6.95858 12.0502 7.40365 11.5789 7.95266 11.5789H11.929C12.478 11.5789 12.9231 12.0502 12.9231 12.6316V17.8947H15.9053V8.07504L9.94083 2.46101L3.97634 8.07504ZM10.9349 17.8947V13.6842H8.94675V17.8947H10.9349Z" fill="black"/>
</svg>
