<svg width="16" height="15" viewBox="0 0 16 15" fill="none" xmlns="http://www.w3.org/2000/svg">
<path fill-rule="evenodd" clip-rule="evenodd" d="M11.9942 0.244078C12.3177 -0.0813593 12.8422 -0.0813593 13.1657 0.244078L15.6509 2.74408C15.9744 3.06952 15.9744 3.59715 15.6509 3.92259L8.19529 11.4226C8.03993 11.5789 7.82922 11.6667 7.60952 11.6667H5.12431C4.6668 11.6667 4.29591 11.2936 4.29591 10.8333V8.33333C4.29591 8.11232 4.38319 7.90036 4.53854 7.74408L11.9942 0.244078ZM5.95271 8.67851V10H7.26638L13.8936 3.33333L12.5799 2.01184L5.95271 8.67851ZM0.9823 3.33333C0.9823 2.41286 1.72408 1.66667 2.6391 1.66667H6.78112C7.23863 1.66667 7.60952 2.03976 7.60952 2.5C7.60952 2.96024 7.23863 3.33333 6.78112 3.33333H2.6391V13.3333H12.5799V9.16667C12.5799 8.70643 12.9508 8.33333 13.4083 8.33333C13.8658 8.33333 14.2367 8.70643 14.2367 9.16667V13.3333C14.2367 14.2538 13.495 15 12.5799 15H2.6391C1.72408 15 0.9823 14.2538 0.9823 13.3333V3.33333Z" fill="black"/>
</svg>
