<svg width="17" height="16" viewBox="0 0 17 16" fill="none" xmlns="http://www.w3.org/2000/svg">
<path fill-rule="evenodd" clip-rule="evenodd" d="M11.9942 0.244078C12.3177 -0.0813593 12.8422 -0.0813593 13.1657 0.244078L16.4793 3.57741C16.8028 3.90285 16.8028 4.43049 16.4793 4.75592L5.71008 15.5893C5.55473 15.7455 5.34402 15.8333 5.12431 15.8333H1.8107C1.35319 15.8333 0.9823 15.4602 0.9823 15V11.6667C0.9823 11.4457 1.06958 11.2337 1.22493 11.0774L9.50879 2.74425L11.9942 0.244078ZM10.0947 4.51184L2.6391 12.0118V14.1667H4.78118L12.2368 6.66667L10.0947 4.51184ZM13.4083 5.48816L11.2663 3.33333L12.5799 2.01184L14.722 4.16667L13.4083 5.48816Z" fill="black"/>
</svg>
