<svg width="18" height="19" viewBox="0 0 18 19" fill="none" xmlns="http://www.w3.org/2000/svg">
<path fill-rule="evenodd" clip-rule="evenodd" d="M17.0875 1.05102C17.3033 1.28022 17.3786 1.61924 17.2821 1.92673L12.1559 18.2645C12.0576 18.5777 11.7986 18.8029 11.4901 18.8432C11.1817 18.8835 10.879 18.7318 10.7122 18.4533L6.82119 11.9576L0.706812 7.824C0.444647 7.64676 0.301826 7.32513 0.339795 6.99748C0.377762 6.66983 0.589747 6.39461 0.884545 6.29021L16.2632 0.844295C16.5527 0.741796 16.8718 0.821827 17.0875 1.05102ZM8.43114 11.4575L11.1627 16.0176L14.6748 4.82448L8.43114 11.4575ZM13.5356 3.61427L7.29198 10.2473L2.9995 7.34533L13.5356 3.61427Z" fill="black"/>
</svg>
