<svg width="21" height="20" viewBox="0 0 21 20" fill="none" xmlns="http://www.w3.org/2000/svg">
<path fill-rule="evenodd" clip-rule="evenodd" d="M0.988159 1C0.988159 0.447715 1.43323 0 1.98224 0H9.9349C10.1986 0 10.4514 0.105357 10.6378 0.292893L20.5787 10.2929C20.9669 10.6834 20.9669 11.3166 20.5787 11.7071L12.626 19.7071C12.2378 20.0976 11.6084 20.0976 11.2201 19.7071L1.27932 9.70711C1.09289 9.51957 0.988159 9.26522 0.988159 9V1ZM2.97632 2V8.58579L11.9231 17.5858L18.4699 11L9.52314 2H2.97632Z" fill="black"/>
<path d="M7.94674 5.5C7.94674 6.32843 7.27914 7 6.45561 7C5.63209 7 4.96449 6.32843 4.96449 5.5C4.96449 4.67157 5.63209 4 6.45561 4C7.27914 4 7.94674 4.67157 7.94674 5.5Z" fill="black"/>
</svg>
