<svg width="21" height="20" viewBox="0 0 21 20" fill="none" xmlns="http://www.w3.org/2000/svg">
<path fill-rule="evenodd" clip-rule="evenodd" d="M7.61538 0C8.2254 0 8.71991 0.471279 8.71991 1.05263V2.10526H13.1381V1.05263C13.1381 0.471279 13.6326 0 14.2426 0C14.8526 0 15.3471 0.471279 15.3471 1.05263V2.10526H18.6607C19.8808 2.10526 20.8698 3.04782 20.8698 4.21053V17.8947C20.8698 19.0574 19.8808 20 18.6607 20H3.19723C1.97719 20 0.988159 19.0574 0.988159 17.8947V4.21053C0.988159 3.04782 1.97719 2.10526 3.19723 2.10526H6.51084V1.05263C6.51084 0.471279 7.00536 0 7.61538 0ZM6.51084 4.21053H3.19723V7.36842H18.6607V4.21053H15.3471V5.26316C15.3471 5.84451 14.8526 6.31579 14.2426 6.31579C13.6326 6.31579 13.1381 5.84451 13.1381 5.26316V4.21053H8.71991V5.26316C8.71991 5.84451 8.2254 6.31579 7.61538 6.31579C7.00536 6.31579 6.51084 5.84451 6.51084 5.26316V4.21053ZM18.6607 9.47368H3.19723V17.8947H18.6607V9.47368Z" fill="black"/>
</svg>
