<svg width="18" height="15" viewBox="0 0 18 15" fill="none" xmlns="http://www.w3.org/2000/svg">
<path fill-rule="evenodd" clip-rule="evenodd" d="M0.9823 1.66667C0.9823 0.746192 1.72408 0 2.6391 0H15.8935C16.8086 0 17.5504 0.746192 17.5504 1.66667V10.8333C17.5504 11.7538 16.8086 12.5 15.8935 12.5H12.0947L9.85209 14.7559C9.52858 15.0814 9.00407 15.0814 8.68056 14.7559L6.43798 12.5H2.6391C1.72408 12.5 0.9823 11.7538 0.9823 10.8333V1.66667ZM15.8935 1.66667H2.6391V10.8333H6.78112C7.00082 10.8333 7.21153 10.9211 7.36689 11.0774L9.26632 12.9882L11.1658 11.0774C11.3211 10.9211 11.5318 10.8333 11.7515 10.8333H15.8935V1.66667ZM4.29591 4.58333C4.29591 4.1231 4.6668 3.75 5.12431 3.75H13.4083C13.8659 3.75 14.2367 4.1231 14.2367 4.58333C14.2367 5.04357 13.8659 5.41667 13.4083 5.41667H5.12431C4.6668 5.41667 4.29591 5.04357 4.29591 4.58333ZM4.29591 7.91667C4.29591 7.45643 4.6668 7.08333 5.12431 7.08333H10.0947C10.5522 7.08333 10.9231 7.45643 10.9231 7.91667C10.9231 8.3769 10.5522 8.75 10.0947 8.75H5.12431C4.6668 8.75 4.29591 8.3769 4.29591 7.91667Z" fill="black"/>
</svg>
