<svg width="21" height="18" viewBox="0 0 21 18" fill="none" xmlns="http://www.w3.org/2000/svg">
<path fill-rule="evenodd" clip-rule="evenodd" d="M10.565 2.33329C6.30686 2.33329 2.85499 5.31806 2.85499 8.99996C2.85499 12.6819 6.30686 15.6666 10.565 15.6666C14.8231 15.6666 18.2749 12.6819 18.2749 8.99996C18.2749 5.31806 14.8231 2.33329 10.565 2.33329ZM0.92749 8.99996C0.92749 4.39759 5.24234 0.666626 10.565 0.666626C15.8876 0.666626 20.2024 4.39759 20.2024 8.99996C20.2024 13.6023 15.8876 17.3333 10.565 17.3333C5.24234 17.3333 0.92749 13.6023 0.92749 8.99996ZM10.565 4.83329C11.0972 4.83329 11.5287 5.20639 11.5287 5.66663V8.16663H14.42C14.9522 8.16663 15.3837 8.53972 15.3837 8.99996C15.3837 9.4602 14.9522 9.83329 14.42 9.83329H11.5287V12.3333C11.5287 12.7935 11.0972 13.1666 10.565 13.1666C10.0327 13.1666 9.60122 12.7935 9.60122 12.3333V9.83329H6.70998C6.17771 9.83329 5.74623 9.4602 5.74623 8.99996C5.74623 8.53972 6.17771 8.16663 6.70998 8.16663H9.60122V5.66663C9.60122 5.20639 10.0327 4.83329 10.565 4.83329Z" fill="black"/>
</svg>
